<?xml version="1.0" standalone="no"?>
<!DOCTYPE svg PUBLIC "-//W3C//DTD SVG 20010904//EN"
 "http://www.w3.org/TR/2001/REC-SVG-20010904/DTD/svg10.dtd">
<svg version="1.0" xmlns="http://www.w3.org/2000/svg"
 width="96.000000pt" height="96.000000pt" viewBox="0 0 96.000000 96.000000"
 preserveAspectRatio="xMidYMid meet">
<metadata>
Created by potrace 1.14, written by Peter Selinger 2001-2017
</metadata>
<g transform="translate(0.000000,96.000000) scale(0.100000,-0.100000)"
fill="#000000" stroke="none">
<path d="M470 902 c-8 -3 -58 -44 -110 -91 -52 -47 -100 -90 -106 -96 -6 -5
-33 -30 -60 -55 -27 -25 -73 -66 -101 -92 l-52 -48 59 0 60 0 0 -188 c0 -133
4 -192 12 -200 17 -17 599 -17 616 0 8 8 12 67 12 200 l0 188 55 0 c30 0 55 4
55 9 0 5 -4 11 -9 13 -7 2 -79 66 -195 173 -49 44 -194 173 -206 181 -8 6 -22
9 -30 6z m110 -182 c51 -47 103 -94 116 -105 24 -20 24 -23 24 -218 l0 -197
-240 0 -240 0 0 199 0 199 33 25 c17 14 70 62 117 106 47 44 88 79 91 78 4 -1
48 -40 99 -87z"/>
<path d="M374 559 c-50 -18 -69 -84 -37 -129 26 -38 131 -140 143 -140 19 0
150 140 156 167 10 40 -8 76 -48 98 -35 19 -38 19 -73 2 -29 -14 -40 -15 -58
-5 -28 15 -57 17 -83 7z"/>
</g>
</svg>
